<svg xmlns="http://www.w3.org/2000/svg" fill="currentColor" viewBox="0 0 24 24"><path fill="currentcolor" d="M12 3c-4.963 0-9 4.037-9 9s4.037 9 9 9 9-4.037 9-9-4.037-9-9-9Zm0 16.364c-4.06 0-7.364-3.304-7.364-7.364 0-4.06 3.304-7.364 7.364-7.364 4.06 0 7.364 3.304 7.364 7.364 0 4.06-3.304 7.364-7.364 7.364Z"/><path fill="currentcolor" d="M12 6.818a1.092 1.092 0 1 0 1.09 1.091c0-.601-.489-1.09-1.09-1.09Zm0 3.818a.818.818 0 0 0-.818.819v4.909a.818.818 0 0 0 1.636 0v-4.91a.818.818 0 0 0-.818-.818Z"/></svg>