<svg width="24" height="24" viewBox="0 0 24 24" fill="none" xmlns="http://www.w3.org/2000/svg">
<g clip-path="url(#clip0_50_126)">
<path d="M7.86573 20.3574C15.345 20.3574 19.4351 14.1821 19.4351 8.82706C19.4351 8.65168 19.4316 8.47711 19.4236 8.30326C20.2195 7.72934 20.9063 7.01874 21.4519 6.20477C20.7233 6.52759 19.9393 6.74486 19.1168 6.84282C19.9564 6.34114 20.6008 5.54745 20.9049 4.60138C20.1067 5.07329 19.2335 5.40596 18.3229 5.58505C17.5809 4.79735 16.5245 4.30469 15.3548 4.30469C13.1093 4.30469 11.2883 6.11953 11.2883 8.3566C11.2883 8.67464 11.324 8.9839 11.3938 9.28063C8.01429 9.11115 5.01757 7.49858 3.01201 5.04656C2.65079 5.66501 2.4608 6.36789 2.46143 7.08341C2.46143 8.48939 3.17927 9.73055 4.27093 10.4567C3.6252 10.437 2.99364 10.2632 2.42936 9.94983C2.42876 9.96684 2.42876 9.98342 2.42876 10.0016C2.42876 11.9642 3.83036 13.6028 5.69094 13.9741C5.3415 14.0689 4.98091 14.1169 4.61873 14.1167C4.35718 14.1167 4.10227 14.091 3.85453 14.0436C4.3722 15.6538 5.8733 16.8255 7.65303 16.8583C6.2613 17.9454 4.50816 18.5929 2.60274 18.5929C2.27861 18.5932 1.95474 18.5745 1.63281 18.5368C3.43241 19.6864 5.56924 20.3571 7.86593 20.3571" fill="white"/>
</g>
<defs>
<clipPath id="clip0_50_126">
<rect width="19.2" height="16.2" fill="white" transform="translate(2.39844 4.19922)"/>
</clipPath>
</defs>
</svg>
