<svg width="24" height="24" viewBox="0 0 24 24" fill="none" xmlns="http://www.w3.org/2000/svg">
<g clip-path="url(#clip0_50_124)">
<path fill-rule="evenodd" clip-rule="evenodd" d="M21.5984 11.9984C21.5984 17.3004 17.3004 21.5984 11.9984 21.5984C6.6965 21.5984 2.39844 17.3004 2.39844 11.9984C2.39844 6.6965 6.6965 2.39844 11.9984 2.39844C17.3004 2.39844 21.5984 6.6965 21.5984 11.9984ZM12.9928 5.34766H15.1194H15.1204V7.64256C14.9986 7.64327 14.6365 7.64301 14.3049 7.64278C14.15 7.64267 14.0018 7.64256 13.8878 7.64256C13.8863 7.64256 13.8838 7.64251 13.8806 7.64244C13.7914 7.64061 13.0904 7.6262 13.0904 8.32406C13.0949 8.61932 13.0904 9.63604 13.0904 9.63604H15.1287L14.9635 11.9216H13.138V18.6538H10.3723V11.9658H8.86719V9.64256H10.3271C10.3271 9.40868 10.3278 9.18368 10.3285 8.96347C10.3299 8.53681 10.3312 8.12813 10.3271 7.70772C10.3271 5.87843 11.7308 5.34766 12.9928 5.34766Z" fill="white"/>
</g>
<defs>
<clipPath id="clip0_50_124">
<rect width="19.2" height="19.2" fill="white" transform="translate(2.39844 2.39844)"/>
</clipPath>
</defs>
</svg>
