<svg width="24" height="24" viewBox="0 0 24 24" fill="none" xmlns="http://www.w3.org/2000/svg">
<g clip-path="url(#clip0_50_125)">
<path d="M18.374 6.01987C20.4532 9.1554 21.48 12.6922 21.0961 16.7639C21.0945 16.7811 21.0858 16.7969 21.072 16.8073C19.4975 17.9932 17.972 18.7128 16.4679 19.1901C16.4562 19.1938 16.4437 19.1936 16.4321 19.1895C16.4205 19.1855 16.4104 19.1779 16.4033 19.1677C16.0558 18.6718 15.7401 18.1489 15.4635 17.5999C15.4476 17.5676 15.4621 17.5286 15.4948 17.5159C15.9962 17.3221 16.473 17.0898 16.9316 16.8149C16.9678 16.7931 16.9701 16.74 16.9367 16.7145C16.8394 16.6404 16.7429 16.5625 16.6507 16.4846C16.6334 16.4702 16.6102 16.4674 16.5906 16.4771C13.613 17.8874 10.3513 17.8874 7.33854 16.4771C7.31898 16.4681 7.29574 16.4712 7.27894 16.4853C7.18689 16.5632 7.09024 16.6404 6.99382 16.7145C6.96045 16.74 6.96321 16.7931 6.99957 16.8149C7.4582 17.0847 7.93501 17.3221 8.43576 17.5168C8.46821 17.5296 8.48363 17.5676 8.46752 17.5999C8.19689 18.1497 7.88117 18.6725 7.52724 19.1684C7.51182 19.1885 7.48651 19.1977 7.46257 19.1901C5.96563 18.7128 4.44015 17.9932 2.86566 16.8073C2.85254 16.7969 2.84311 16.7804 2.84173 16.7632C2.52094 13.2412 3.17471 9.67516 5.56131 6.01916C5.56706 6.00948 5.57581 6.00193 5.58593 5.99744C6.76024 5.44464 8.01832 5.03794 9.33324 4.80568C9.35717 4.80191 9.3811 4.81324 9.39353 4.83495C9.55599 5.13 9.7417 5.50837 9.86735 5.81758C11.2534 5.60042 12.661 5.60042 14.076 5.81758C14.2017 5.51498 14.381 5.13 14.5427 4.83495C14.5485 4.82418 14.5574 4.81555 14.5683 4.81029C14.5791 4.80504 14.5913 4.80342 14.603 4.80568C15.9186 5.03865 17.1767 5.44535 18.3501 5.99744C18.3605 6.00193 18.369 6.00948 18.374 6.01987V6.01987ZM10.572 12.7163C10.5865 11.6751 9.84641 10.8136 8.91741 10.8136C7.996 10.8136 7.26306 11.6676 7.26306 12.7163C7.26306 13.7648 8.0105 14.6188 8.91741 14.6188C9.83904 14.6188 10.572 13.7648 10.572 12.7163V12.7163ZM16.6891 12.7163C16.7036 11.6751 15.9635 10.8136 15.0347 10.8136C14.1131 10.8136 13.3802 11.6676 13.3802 12.7163C13.3802 13.7648 14.1276 14.6188 15.0347 14.6188C15.9635 14.6188 16.6891 13.7648 16.6891 12.7163V12.7163Z" fill="white"/>
</g>
<defs>
<clipPath id="clip0_50_125">
<rect width="19.2" height="14.4" fill="white" transform="translate(2.39844 4.80078)"/>
</clipPath>
</defs>
</svg>
