<svg width="24" height="24" viewBox="0 0 24 24" fill="none" xmlns="http://www.w3.org/2000/svg">
<path d="M11.996 8.79707C10.2332 8.79707 8.79467 10.2356 8.79467 11.9984C8.79467 13.7612 10.2332 15.1998 11.996 15.1998C13.7588 15.1998 15.1974 13.7612 15.1974 11.9984C15.1974 10.2356 13.7588 8.79707 11.996 8.79707ZM21.5977 11.9984C21.5977 10.6727 21.6097 9.35905 21.5353 8.03576C21.4608 6.49872 21.1102 5.1346 19.9862 4.01064C18.8599 2.88428 17.4982 2.53604 15.9611 2.46159C14.6354 2.38714 13.3217 2.39915 11.9984 2.39915C10.6727 2.39915 9.35905 2.38714 8.03576 2.46159C6.49872 2.53604 5.1346 2.88668 4.01064 4.01064C2.88428 5.137 2.53604 6.49872 2.46159 8.03576C2.38714 9.36146 2.39915 10.6751 2.39915 11.9984C2.39915 13.3217 2.38714 14.6378 2.46159 15.9611C2.53604 17.4982 2.88668 18.8623 4.01064 19.9862C5.137 21.1126 6.49872 21.4608 8.03576 21.5353C9.36146 21.6097 10.6751 21.5977 11.9984 21.5977C13.3241 21.5977 14.6378 21.6097 15.9611 21.5353C17.4982 21.4608 18.8623 21.1102 19.9862 19.9862C21.1126 18.8599 21.4608 17.4982 21.5353 15.9611C21.6121 14.6378 21.5977 13.3241 21.5977 11.9984V11.9984ZM11.996 16.9242C9.27019 16.9242 7.07031 14.7243 7.07031 11.9984C7.07031 9.2726 9.27019 7.07271 11.996 7.07271C14.7219 7.07271 16.9218 9.2726 16.9218 11.9984C16.9218 14.7243 14.7219 16.9242 11.996 16.9242ZM17.1235 8.02135C16.4871 8.02135 15.9731 7.5074 15.9731 6.87097C15.9731 6.23454 16.4871 5.7206 17.1235 5.7206C17.7599 5.7206 18.2739 6.23454 18.2739 6.87097C18.2741 7.0221 18.2444 7.17177 18.1867 7.31143C18.129 7.45108 18.0442 7.57798 17.9374 7.68484C17.8305 7.7917 17.7036 7.87643 17.564 7.93417C17.4243 7.99191 17.2746 8.02154 17.1235 8.02135V8.02135Z" fill="white"/>
</svg>
