<svg width="127" height="34" viewBox="0 0 127 34" fill="none" xmlns="http://www.w3.org/2000/svg">
<path fill-rule="evenodd" clip-rule="evenodd" d="M114.926 15.3187H106.092V6.48438H114.926C117.362 6.48438 119.343 8.46601 119.343 10.9016C119.343 13.3371 117.362 15.3187 114.926 15.3187ZM114.927 0.378906H106.093H104.054H99.2969V32.998H106.093V21.4453H114.927C121.383 21.4453 126.14 16.7295 126.14 10.9121C126.14 5.09472 121.383 0.378906 114.927 0.378906Z" fill="#FBF8F3"/>
<path fill-rule="evenodd" clip-rule="evenodd" d="M13.7937 26.8868H6.99805V6.5H13.7937C19.4142 6.5 23.9871 11.0727 23.9871 16.6934C23.9871 22.3141 19.4142 26.8868 13.7937 26.8868ZM13.7945 0.394531H6.9988H4.28048H0.203125V33.0134H4.28048H6.9988H13.7945C23.3082 33.0134 30.7835 25.7114 30.7835 16.704C30.7835 7.69652 23.3082 0.394531 13.7945 0.394531Z" fill="#FBF8F3"/>
<path fill-rule="evenodd" clip-rule="evenodd" d="M77.6133 32.998H83.724V0.378906H77.6133V32.998Z" fill="#FBF8F3"/>
<path fill-rule="evenodd" clip-rule="evenodd" d="M94.3501 26.0572L90.0291 30.3819L66.9844 7.31687L71.3053 2.99219L94.3501 26.0572Z" fill="#FBF8F3"/>
<path fill-rule="evenodd" clip-rule="evenodd" d="M64.3711 19.741H96.9616V13.625H64.3711V19.741Z" fill="#FBF8F3"/>
<path fill-rule="evenodd" clip-rule="evenodd" d="M90.0291 2.99219L94.3501 7.31687L71.3053 30.3819L66.9844 26.0572L90.0291 2.99219Z" fill="#FBF8F3"/>
<path fill-rule="evenodd" clip-rule="evenodd" d="M50.8282 15.3344H41.6543V6.5H50.8282C53.2638 6.5 55.2454 8.48164 55.2454 10.9172C55.2454 13.3527 53.2638 15.3344 50.8282 15.3344ZM62.0418 10.9277C62.0418 5.11012 57.2849 0.394531 50.829 0.394531H41.655H39.956H34.8594V33.0134H41.655V21.461H47.1965L53.8664 33.0134H61.7135L54.6923 20.8522C59.0943 19.4005 62.0418 15.5061 62.0418 10.9277Z" fill="#FBF8F3"/>
</svg>
