<svg width="321" height="66" viewBox="0 0 321 66" fill="none" xmlns="http://www.w3.org/2000/svg">
<path fill-rule="evenodd" clip-rule="evenodd" d="M69.9766 0.731445C65.7403 0.731445 61.531 2.62365 57.6288 6.02963C54.9912 8.33238 52.5406 11.2403 50.2678 14.3141C47.4709 10.7696 44.869 8.06578 42.3478 6.00598C37.5647 2.09654 32.9841 0.731445 28.3765 0.731445C23.9012 0.731445 19.7486 2.3726 16.1158 5.12846C15.914 5.28153 15.7138 5.43831 15.5153 5.59814C14.9196 6.07795 14.3386 6.58783 13.7732 7.12542C13.5849 7.3045 13.3982 7.48663 13.2132 7.67213C12.4736 8.41314 11.7624 9.20178 11.0819 10.033C10.2309 11.0717 9.4279 12.1763 8.67684 13.3349C3.25911 21.6978 0.410156 32.5273 0.410156 42.9176C0.410156 48.6313 1.53758 53.6457 3.83295 57.4673C6.64477 62.1573 11.1849 65.2693 18.3646 65.2693C24.417 65.2693 29.0144 62.5492 34.3984 55.3723C37.4702 51.2737 39.0263 48.7902 45.1698 37.8863L48.228 32.4631C48.4818 32.013 48.7303 31.5728 48.979 31.1321C49.2248 31.5356 49.4715 31.9431 49.72 32.3584L58.4255 46.9148C61.3521 51.8143 65.1563 57.2645 68.4103 60.3326C72.6432 64.3299 76.4711 65.2693 80.7918 65.2693C84.7013 65.2693 87.719 64.1072 89.9884 62.436C90.4927 62.0647 90.9602 61.668 91.3923 61.2537C91.8244 60.8391 92.2207 60.4066 92.5835 59.9633C93.1277 59.2987 93.5962 58.6094 93.9935 57.9201C96.1876 54.1187 97.4771 49.3071 97.4771 42.7587C97.4771 31.7434 94.7226 21.0693 89.0483 12.5949C83.8635 4.85714 77.0888 0.731445 69.9766 0.731445ZM80.7926 54.7915C78.4466 54.7915 76.6407 53.8589 74.0618 50.73C72.0567 48.2938 68.6305 43.1274 62.6086 33.0852L60.1141 28.9223C58.3355 25.9566 56.6474 23.2907 55.0319 20.8909C55.3195 20.4449 55.606 20.0077 55.8913 19.5829C60.4246 12.8352 64.4584 9.05077 69.471 9.05077C74.1057 9.05077 78.3183 12.1189 81.569 17.14C86.1496 24.2188 88.2289 34.1259 88.2289 43.0531C88.2289 49.3176 86.7437 54.7915 80.7926 54.7915ZM36.8527 34.6436C34.2089 38.8223 31.1446 43.6657 28.4227 47.436C23.6024 54.1094 21.1011 54.7886 18.3669 54.7886C16.2471 54.7886 14.1678 53.8323 12.7737 51.5752C11.7104 49.8519 10.8969 47.0035 10.8969 43.2934C10.8969 34.2986 13.4454 24.9322 17.6074 18.644C20.5509 14.1939 24.0682 11.2847 28.21 11.2847C33.3273 11.2847 36.5341 14.4879 39.0286 17.1404C40.2738 18.4649 42.0092 20.6562 44.0224 23.5262L39.8961 29.8722C38.9929 31.2608 37.9601 32.8932 36.8537 34.6421L36.8527 34.6436Z" fill="white"/>
<path fill-rule="evenodd" clip-rule="evenodd" d="M214.268 17.315C200.887 17.315 191.895 27.4519 191.895 41.3799C191.895 54.649 200.529 65.2217 215.014 65.2217C222.987 65.2217 229.286 62.5929 234.238 58.0347L228.982 51.591C225.343 55.0207 221.505 56.896 215.365 56.896C207.669 56.896 202.896 52.0438 201.704 44.8433H235.287V42.1232C235.287 27.3235 227.429 17.315 214.268 17.315ZM201.71 37.6103C202.733 30.9909 207.006 25.6455 214.102 25.6455C221.366 25.6455 225.295 30.7916 225.791 37.6103H201.71Z" fill="white"/>
<path fill-rule="evenodd" clip-rule="evenodd" d="M311.04 24.2854V18.4128H320.41V64.1266H311.04V57.7268C308.42 61.4944 303.654 65.2213 295.934 65.2213C283.519 65.2213 275.222 54.8176 275.222 41.2477C275.222 27.5495 283.718 17.3147 296.461 17.3147C302.76 17.3147 307.701 19.8354 311.04 24.2854ZM298 56.5402C304.441 56.5402 309.038 52.7896 310.871 48.1232V34.4047C308.954 29.5593 304.677 25.9912 298.392 25.9912C290.223 25.9912 284.994 31.7928 284.994 41.2437C284.994 50.4581 289.808 56.5402 298 56.5402Z" fill="white"/>
<path d="M150.618 40.1137L129.997 2.76962H117.868V64.1312H127.762V17.1031L145.845 49.6693H155.128L173.214 17.1031V64.1312H183.107V2.76962H171.242L150.618 40.1137Z" fill="white"/>
<path d="M256.834 26.5269V47.081C256.834 54.0991 259.076 56.5927 264.584 56.5927C267.099 56.5927 268.541 56.3765 270.67 56.0217V64.0433C268.017 64.7934 265.486 65.1381 262.745 65.1381C252.439 65.1381 247.288 59.502 247.288 48.2197L247.288 26.5269H238.181V18.4174H247.288V5.00639H256.834V18.4174H270.67V26.5269H256.834Z" fill="white"/>
</svg>
